<svg width="38" height="38" fill="none" xmlns="http://www.w3.org/2000/svg">
  <g filter="url(#Logomark__a)">
    <rect x="3.1" y="2.1" width="31.8" height="31.8" rx="7.9" fill="#fff" />
    <rect x="3.1" y="2.1" width="31.8" height="31.8" rx="7.9" fill="url(#Logomark__b)" />
    <path d="M30 18.5c0 6.144-4.943 11.09-11 11.09S8 24.645 8 18.5 12.943 7.41 19 7.41s11 4.946 11 11.09Z"
      stroke="#155EEF" stroke-width="6" />
    <g filter="url(#Logomark__c)">
      <path
        d="M3 18h32v3.2c0 4.48 0 6.72-.872 8.432a8 8 0 0 1-3.496 3.496C28.92 34 26.68 34 22.2 34h-6.4c-4.48 0-6.72 0-8.432-.872a8 8 0 0 1-3.496-3.496C3 27.92 3 25.68 3 21.2V18Z"
        fill="#fff" fill-opacity=".2" />
    </g>
    <rect x="3.1" y="2.1" width="31.8" height="31.8" rx="7.9" stroke="#D0D5DD" stroke-width=".2" />
  </g>
  <defs>
    <filter id="Logomark__a" x="0" y="0" width="38" height="38" filterUnits="userSpaceOnUse"
      color-interpolation-filters="sRGB">
      <feFlood flood-opacity="0" result="BackgroundImageFix" />
      <feColorMatrix in="SourceAlpha" values="0 0 0 0 0 0 0 0 0 0 0 0 0 0 0 0 0 0 127 0" result="hardAlpha" />
      <feOffset dy="1" />
      <feGaussianBlur stdDeviation="1" />
      <feColorMatrix values="0 0 0 0 0.0627451 0 0 0 0 0.0941176 0 0 0 0 0.156863 0 0 0 0.06 0" />
      <feBlend in2="BackgroundImageFix" result="effect1_dropShadow_12_34546" />
      <feColorMatrix in="SourceAlpha" values="0 0 0 0 0 0 0 0 0 0 0 0 0 0 0 0 0 0 127 0" result="hardAlpha" />
      <feOffset dy="1" />
      <feGaussianBlur stdDeviation="1.5" />
      <feColorMatrix values="0 0 0 0 0.0627451 0 0 0 0 0.0941176 0 0 0 0 0.156863 0 0 0 0.1 0" />
      <feBlend in2="effect1_dropShadow_12_34546" result="effect2_dropShadow_12_34546" />
      <feBlend in="SourceGraphic" in2="effect2_dropShadow_12_34546" result="shape" />
    </filter>
    <filter id="Logomark__c" x="-2" y="13" width="42" height="26" filterUnits="userSpaceOnUse"
      color-interpolation-filters="sRGB">
      <feFlood flood-opacity="0" result="BackgroundImageFix" />
      <feGaussianBlur in="BackgroundImageFix" stdDeviation="2.5" />
      <feComposite in2="SourceAlpha" operator="in" result="effect1_backgroundBlur_12_34546" />
      <feBlend in="SourceGraphic" in2="effect1_backgroundBlur_12_34546" result="shape" />
    </filter>
    <linearGradient id="Logomark__b" x1="19" y1="2" x2="19" y2="34" gradientUnits="userSpaceOnUse">
      <stop stop-color="#fff" />
      <stop offset="1" stop-color="#D0D5DD" />
    </linearGradient>
  </defs>
</svg>